<?xml version="1.0" encoding="utf-8"?>
<!-- Generator: Adobe Illustrator 19.0.0, SVG Export Plug-In . SVG Version: 6.00 Build 0)  -->
<!DOCTYPE svg PUBLIC "-//W3C//DTD SVG 1.1//EN" "http://www.w3.org/Graphics/SVG/1.1/DTD/svg11.dtd">
<svg version="1.1" id="Layer_1" xmlns="http://www.w3.org/2000/svg" xmlns:xlink="http://www.w3.org/1999/xlink" x="0px" y="0px"
	 viewBox="-1 -26 332 100" style="enable-background:new -1 -26 332 100;" xml:space="preserve">
<g>
	<path style="fill:#010101;" d="M25.413-13.562c0.229-0.197,0.47-0.382,0.72-0.551c3.417-2.301,8.444-1.729,14.939,1.703
		c1.106,0.584,1.53,1.954,0.945,3.06s-1.955,1.529-3.061,0.945c-4.76-2.515-8.414-3.209-10.286-1.957
		c-1.365,0.914-1.846,2.996-1.995,4.488l-1.264-0.584L25.413-13.562L25.413-13.562z"/>
	<path style="fill:#010101;" d="M31.915,26.248c-1.551-2.793-3.046-5.494-4.322-8.093l-6.223-2.878
		c1.633,4.232,4.038,8.577,6.583,13.167c5.955,10.743,12.11,21.851,8.554,32.117c-1.167,3.366-3.464,5.95-6.64,7.472
		c-3.668,1.759-8.155,1.914-12.307,0.428c-4.217-1.509-7.789-4.446-10.331-8.502c-2.43-3.874-3.742-8.555-3.698-13.181
		c0.079-7.993,4.346-14.389,8.51-19.591c0.586-0.73,1.408-1.614,2.275-2.547c2.578-2.771,5.609-6.027,6.693-9.528l-4.184-1.936
		c-0.471,2.625-3.51,5.892-5.825,8.378c-0.928,0.997-1.805,1.94-2.496,2.803C5.506,28.1,3.407,31.344,1.894,34.56
		c-1.905,4.057-2.852,8.038-2.893,12.171c-0.054,5.484,1.505,11.035,4.388,15.633c3.088,4.924,7.459,8.507,12.643,10.362
		C18.411,73.577,20.886,74,23.322,74c2.974,0,5.889-0.631,8.502-1.884c4.291-2.056,7.39-5.538,8.96-10.072
		C45.004,49.869,38.049,37.32,31.915,26.248z"/>
	<path style="fill:#010101;" d="M31.365,14.2L16.344,7.256c-1.135-0.525-2.481-0.031-3.005,1.105
		c-0.526,1.135-0.03,2.481,1.104,3.005l3.59,1.66l4.186,1.936l0.355,0.164l6.225,2.878l0.666,0.307
		c0.308,0.143,0.63,0.21,0.948,0.21c0.854,0,1.675-0.487,2.058-1.315C32.998,16.071,32.502,14.725,31.365,14.2z"/>
	<g>
		<path style="fill:#010101;" d="M30.415,12.803c-0.318,0-0.642-0.066-0.95-0.21L14.444,5.649c-1.135-0.525-1.63-1.872-1.104-3.007
			c0.524-1.136,1.87-1.629,3.005-1.104l15.021,6.944c1.137,0.525,1.631,1.872,1.104,3.006
			C32.089,12.316,31.269,12.803,30.415,12.803z"/>
	</g>
	<g>
		<path style="fill:#010101;" d="M30.415,7.085c-0.318,0-0.642-0.066-0.95-0.21L14.444-0.069c-1.135-0.525-1.63-1.871-1.104-3.006
			c0.524-1.135,1.87-1.63,3.005-1.105l15.021,6.943c1.137,0.525,1.631,1.872,1.104,3.007C32.089,6.599,31.269,7.085,30.415,7.085z"
			/>
	</g>
	<polygon style="fill:#010101;" points="20.163,-26 20.163,-8.932 24.692,-6.837 24.692,-26 	"/>
	<path style="fill:#010101;" d="M31.365-2.952L25.9-5.479l-4.529-2.094l-5.027-2.324c-1.135-0.525-2.481-0.031-3.005,1.104
		c-0.526,1.135-0.03,2.481,1.104,3.006l15.021,6.944c0.308,0.143,0.63,0.21,0.948,0.21c0.854,0,1.675-0.487,2.058-1.315
		C32.998-1.082,32.502-2.426,31.365-2.952z"/>
</g>
<g>
	<path d="M135.146,52.814h-19.849l-6.534-32.51l-6.534,32.51H82.379L67.513-6.814h21.483l4.9,32.02l5.963-32.02H119.3l5.963,32.02
		l4.902-32.02h19.848L135.146,52.814z"/>
	<path d="M218.789,52.814H198.94l-6.534-32.51l-6.534,32.51h-19.849L151.156-6.814h21.483l4.9,32.02l5.963-32.02h19.441l5.963,32.02
		l4.902-32.02h19.848L218.789,52.814z"/>
	<path d="M261.06,39.663c-1.224,2.941-2.954,5.391-5.186,7.352c-2.234,1.96-4.956,3.418-8.168,4.37
		c-3.213,0.953-6.808,1.429-10.782,1.429h-7.597v-15.52h3.84c3.594,0,6.126-0.844,7.597-2.532c1.47-1.688,2.204-4.547,2.204-8.577
		v-33h19.932v36.022C262.899,33.238,262.286,36.723,261.06,39.663z"/>
	<path d="M325.304,35.865c-1.796,3.731-4.248,6.849-7.351,9.353c-3.104,2.506-6.698,4.398-10.782,5.677
		c-4.084,1.28-8.414,1.92-12.988,1.92h-22.218V-6.814h22.218c4.9,0,9.419,0.64,13.559,1.919c4.137,1.28,7.704,3.186,10.7,5.718
		c2.994,2.532,5.337,5.65,7.025,9.353c1.687,3.703,2.533,7.951,2.533,12.742C328,27.819,327.101,32.136,325.304,35.865z
		 M304.475,12.463c-2.614-2.45-6.044-3.675-10.292-3.675h-3.104v28.426h3.104c4.519,0,8.017-1.307,10.496-3.921
		c2.477-2.614,3.716-6.072,3.716-10.374C308.395,18.399,307.089,14.913,304.475,12.463z"/>
</g>
</svg>
